# xmcd
#
# Track frame offsets: 
#        150
#        17488
#        32518
#        46263
#        60653
#        71198
#        79998
#        93890
#        108910
#        120748
#        138298
#        148058
#        161755
#        173013
#        188248
#
# Disc length: 2571 seconds
#
# Revision: 3
# Processed by: cddbd v1.5.1PL0 Copyright (c) Steve Scherf et al.
# Submitted via: ExactAudioCopy v0.95a5
#
DISCID=c70a090f
DTITLE=Jive Aces - Bolt from the BLUE
DYEAR=1997
DGENRE=Blues
TTITLE0=When You're Smilin'
TTITLE1=Jive Ace Boogie Woogie
TTITLE2=Play on
TTITLE3=I Wanna' Roll
TTITLE4=Blue Moon
TTITLE5=My Baby Just Cares for Me
TTITLE6=Bolt from the Blue
TTITLE7=What is There?
TTITLE8=Pennies from Heaven
TTITLE9=Dream a Little Dream of Me
TTITLE10=Rock the Joint
TTITLE11=The Golden Age of Science Fiction
TTITLE12=Sittin' on Top of the World
TTITLE13=Truth is
TTITLE14=Reprise of Play On
EXTD=
EXTT0=
EXTT1=
EXTT2=
EXTT3=
EXTT4=
EXTT5=
EXTT6=
EXTT7=
EXTT8=
EXTT9=
EXTT10=
EXTT11=
EXTT12=
EXTT13=
EXTT14=
PLAYORDER=
